<mxfile host="app.diagrams.net" modified="2023-11-24T23:55:43.585Z" agent="Mozilla/5.0 (Windows NT 10.0; Win64; x64) AppleWebKit/537.36 (KHTML, like Gecko) Chrome/118.0.0.0 Safari/537.36 OPR/104.0.0.0" etag="vsIXiPwWIARU_tpfKxfR" version="22.1.3" type="google">
  <diagram name="Page-1" id="0783ab3e-0a74-02c8-0abd-f7b4e66b4bec">
    <mxGraphModel dx="1952" dy="1162" grid="1" gridSize="10" guides="1" tooltips="1" connect="1" arrows="1" fold="1" page="1" pageScale="1" pageWidth="850" pageHeight="1100" background="none" math="0" shadow="0">
      <root>
        <mxCell id="0" />
        <mxCell id="1" parent="0" />
        <mxCell id="1c1d494c118603dd-1" value="STANDARD REGISTRATION AND ACTIVATION PROCESS" style="swimlane;html=1;childLayout=stackLayout;startSize=20;rounded=0;shadow=0;comic=0;labelBackgroundColor=none;strokeWidth=1;fontFamily=Verdana;fontSize=12;align=center;" parent="1" vertex="1">
          <mxGeometry x="40" y="20" width="720" height="990" as="geometry" />
        </mxCell>
        <mxCell id="jAqfNEqAzGO9UF7VZpTB-266" style="edgeStyle=orthogonalEdgeStyle;shape=connector;rounded=0;orthogonalLoop=1;jettySize=auto;html=1;labelBackgroundColor=none;strokeColor=default;strokeWidth=1;align=center;verticalAlign=middle;fontFamily=Verdana;fontSize=12;fontColor=default;startArrow=none;startFill=0;endArrow=classicThin;endFill=1;startSize=5;endSize=5;" edge="1" parent="1c1d494c118603dd-1" source="jAqfNEqAzGO9UF7VZpTB-261" target="jAqfNEqAzGO9UF7VZpTB-263">
          <mxGeometry relative="1" as="geometry">
            <Array as="points">
              <mxPoint x="490" y="312" />
            </Array>
          </mxGeometry>
        </mxCell>
        <mxCell id="jAqfNEqAzGO9UF7VZpTB-257" style="edgeStyle=orthogonalEdgeStyle;shape=connector;rounded=0;orthogonalLoop=1;jettySize=auto;html=1;labelBackgroundColor=none;strokeColor=default;strokeWidth=1;align=center;verticalAlign=middle;fontFamily=Verdana;fontSize=12;fontColor=default;startArrow=none;startFill=0;endArrow=classicThin;endFill=1;startSize=5;endSize=5;" edge="1" parent="1c1d494c118603dd-1" source="jAqfNEqAzGO9UF7VZpTB-255" target="jAqfNEqAzGO9UF7VZpTB-252">
          <mxGeometry relative="1" as="geometry">
            <mxPoint x="835" y="292" as="targetPoint" />
          </mxGeometry>
        </mxCell>
        <mxCell id="jAqfNEqAzGO9UF7VZpTB-259" style="edgeStyle=orthogonalEdgeStyle;shape=connector;rounded=0;orthogonalLoop=1;jettySize=auto;html=1;entryX=0.5;entryY=0;entryDx=0;entryDy=0;labelBackgroundColor=none;strokeColor=default;strokeWidth=1;align=center;verticalAlign=middle;fontFamily=Verdana;fontSize=12;fontColor=default;startArrow=none;startFill=0;endArrow=classicThin;endFill=1;startSize=5;endSize=5;" edge="1" parent="1c1d494c118603dd-1" source="jAqfNEqAzGO9UF7VZpTB-253" target="jAqfNEqAzGO9UF7VZpTB-258">
          <mxGeometry relative="1" as="geometry">
            <mxPoint x="835" y="160" as="sourcePoint" />
          </mxGeometry>
        </mxCell>
        <mxCell id="jAqfNEqAzGO9UF7VZpTB-1" value="customer service" style="swimlane;html=1;startSize=20;" vertex="1" parent="1c1d494c118603dd-1">
          <mxGeometry y="20" width="360" height="970" as="geometry" />
        </mxCell>
        <mxCell id="jAqfNEqAzGO9UF7VZpTB-306" value="store registration code" style="rounded=1;whiteSpace=wrap;html=1;shadow=0;comic=0;labelBackgroundColor=none;strokeWidth=1;fontFamily=Verdana;fontSize=12;align=center;arcSize=50;" vertex="1" parent="jAqfNEqAzGO9UF7VZpTB-1">
          <mxGeometry x="17.5" y="671" width="165" height="40" as="geometry" />
        </mxCell>
        <mxCell id="jAqfNEqAzGO9UF7VZpTB-312" value="generate activation code" style="rounded=1;whiteSpace=wrap;html=1;shadow=0;comic=0;labelBackgroundColor=none;strokeWidth=1;fontFamily=Verdana;fontSize=12;align=center;arcSize=50;" vertex="1" parent="jAqfNEqAzGO9UF7VZpTB-1">
          <mxGeometry x="200" y="720" width="135" height="40" as="geometry" />
        </mxCell>
        <mxCell id="jAqfNEqAzGO9UF7VZpTB-314" value="use activation code generator" style="shape=note;whiteSpace=wrap;html=1;rounded=0;shadow=0;comic=0;labelBackgroundColor=none;strokeWidth=1;fontFamily=Verdana;fontSize=12;align=center;size=20;" vertex="1" parent="jAqfNEqAzGO9UF7VZpTB-1">
          <mxGeometry x="72.5" y="780" width="110" height="62" as="geometry" />
        </mxCell>
        <mxCell id="jAqfNEqAzGO9UF7VZpTB-258" value="" style="whiteSpace=wrap;html=1;rounded=0;shadow=0;comic=0;labelBackgroundColor=none;strokeWidth=1;fillColor=#000000;fontFamily=Verdana;fontSize=12;align=center;rotation=0;" vertex="1" parent="jAqfNEqAzGO9UF7VZpTB-1">
          <mxGeometry x="95" y="164" width="147" height="10" as="geometry" />
        </mxCell>
        <mxCell id="jAqfNEqAzGO9UF7VZpTB-262" style="edgeStyle=orthogonalEdgeStyle;shape=connector;rounded=0;orthogonalLoop=1;jettySize=auto;html=1;labelBackgroundColor=none;strokeColor=default;strokeWidth=1;align=center;verticalAlign=middle;fontFamily=Verdana;fontSize=12;fontColor=default;startArrow=none;startFill=0;endArrow=classicThin;endFill=1;startSize=5;endSize=5;" edge="1" parent="jAqfNEqAzGO9UF7VZpTB-1" source="jAqfNEqAzGO9UF7VZpTB-258" target="jAqfNEqAzGO9UF7VZpTB-261">
          <mxGeometry relative="1" as="geometry" />
        </mxCell>
        <mxCell id="jAqfNEqAzGO9UF7VZpTB-255" value="grant access to installer" style="rounded=1;whiteSpace=wrap;html=1;shadow=0;comic=0;labelBackgroundColor=none;strokeWidth=1;fontFamily=Verdana;fontSize=12;align=center;arcSize=50;" vertex="1" parent="jAqfNEqAzGO9UF7VZpTB-1">
          <mxGeometry x="190" y="212" width="125" height="40" as="geometry" />
        </mxCell>
        <mxCell id="jAqfNEqAzGO9UF7VZpTB-260" style="edgeStyle=orthogonalEdgeStyle;shape=connector;rounded=0;orthogonalLoop=1;jettySize=auto;html=1;labelBackgroundColor=none;strokeColor=default;strokeWidth=1;align=center;verticalAlign=middle;fontFamily=Verdana;fontSize=12;fontColor=default;startArrow=none;startFill=0;endArrow=classicThin;endFill=1;startSize=5;endSize=5;" edge="1" parent="jAqfNEqAzGO9UF7VZpTB-1" source="jAqfNEqAzGO9UF7VZpTB-258" target="jAqfNEqAzGO9UF7VZpTB-255">
          <mxGeometry relative="1" as="geometry" />
        </mxCell>
        <mxCell id="jAqfNEqAzGO9UF7VZpTB-261" value="send installer verification code" style="rounded=1;whiteSpace=wrap;html=1;shadow=0;comic=0;labelBackgroundColor=none;strokeWidth=1;fontFamily=Verdana;fontSize=12;align=center;arcSize=50;" vertex="1" parent="jAqfNEqAzGO9UF7VZpTB-1">
          <mxGeometry x="30" y="270" width="140" height="40" as="geometry" />
        </mxCell>
        <mxCell id="jAqfNEqAzGO9UF7VZpTB-315" style="edgeStyle=none;rounded=0;html=1;dashed=1;labelBackgroundColor=none;startArrow=none;startFill=0;startSize=5;endArrow=oval;endFill=0;endSize=5;jettySize=auto;orthogonalLoop=1;strokeWidth=1;fontFamily=Verdana;fontSize=12" edge="1" parent="jAqfNEqAzGO9UF7VZpTB-1" source="jAqfNEqAzGO9UF7VZpTB-314" target="jAqfNEqAzGO9UF7VZpTB-312">
          <mxGeometry relative="1" as="geometry">
            <mxPoint x="1475" y="679" as="sourcePoint" />
            <mxPoint x="1795" y="639" as="targetPoint" />
          </mxGeometry>
        </mxCell>
        <mxCell id="jAqfNEqAzGO9UF7VZpTB-320" style="edgeStyle=orthogonalEdgeStyle;shape=connector;rounded=0;orthogonalLoop=1;jettySize=auto;html=1;labelBackgroundColor=none;strokeColor=default;strokeWidth=1;align=center;verticalAlign=middle;fontFamily=Verdana;fontSize=12;fontColor=default;startArrow=none;startFill=0;endArrow=classicThin;endFill=1;startSize=5;endSize=5;" edge="1" parent="jAqfNEqAzGO9UF7VZpTB-1" source="jAqfNEqAzGO9UF7VZpTB-319" target="jAqfNEqAzGO9UF7VZpTB-306">
          <mxGeometry relative="1" as="geometry" />
        </mxCell>
        <mxCell id="jAqfNEqAzGO9UF7VZpTB-321" style="edgeStyle=orthogonalEdgeStyle;shape=connector;rounded=0;orthogonalLoop=1;jettySize=auto;html=1;labelBackgroundColor=none;strokeColor=default;strokeWidth=1;align=center;verticalAlign=middle;fontFamily=Verdana;fontSize=12;fontColor=default;startArrow=none;startFill=0;endArrow=classicThin;endFill=1;startSize=5;endSize=5;" edge="1" parent="jAqfNEqAzGO9UF7VZpTB-1" source="jAqfNEqAzGO9UF7VZpTB-319" target="jAqfNEqAzGO9UF7VZpTB-312">
          <mxGeometry relative="1" as="geometry">
            <Array as="points">
              <mxPoint x="210" y="660" />
              <mxPoint x="260" y="660" />
            </Array>
          </mxGeometry>
        </mxCell>
        <mxCell id="jAqfNEqAzGO9UF7VZpTB-319" value="" style="whiteSpace=wrap;html=1;rounded=0;shadow=0;comic=0;labelBackgroundColor=none;strokeWidth=1;fillColor=#000000;fontFamily=Verdana;fontSize=12;align=center;rotation=0;" vertex="1" parent="jAqfNEqAzGO9UF7VZpTB-1">
          <mxGeometry x="95" y="620" width="147" height="10" as="geometry" />
        </mxCell>
        <mxCell id="1c1d494c118603dd-4" value="client" style="swimlane;html=1;startSize=20;" parent="1c1d494c118603dd-1" vertex="1">
          <mxGeometry x="360" y="20" width="360" height="970" as="geometry" />
        </mxCell>
        <mxCell id="60571a20871a0731-5" value="" style="shape=mxgraph.bpmn.shape;html=1;verticalLabelPosition=bottom;labelBackgroundColor=#ffffff;verticalAlign=top;perimeter=ellipsePerimeter;outline=end;symbol=terminate;rounded=0;shadow=0;comic=0;strokeWidth=1;fontFamily=Verdana;fontSize=12;align=center;" parent="1c1d494c118603dd-4" vertex="1">
          <mxGeometry x="168.5" y="900" width="40" height="40" as="geometry" />
        </mxCell>
        <mxCell id="jAqfNEqAzGO9UF7VZpTB-253" value="make order" style="rounded=1;whiteSpace=wrap;html=1;shadow=0;comic=0;labelBackgroundColor=none;strokeWidth=1;fontFamily=Verdana;fontSize=12;align=center;arcSize=50;" vertex="1" parent="1c1d494c118603dd-4">
          <mxGeometry x="128.5" y="120" width="100" height="30" as="geometry" />
        </mxCell>
        <mxCell id="jAqfNEqAzGO9UF7VZpTB-254" style="edgeStyle=none;shape=connector;rounded=0;orthogonalLoop=1;jettySize=auto;html=1;labelBackgroundColor=none;strokeColor=default;strokeWidth=1;align=center;verticalAlign=middle;fontFamily=Verdana;fontSize=12;fontColor=default;startArrow=none;startFill=0;endArrow=classicThin;endFill=1;startSize=5;endSize=5;" edge="1" parent="1c1d494c118603dd-4" source="60571a20871a0731-4" target="jAqfNEqAzGO9UF7VZpTB-253">
          <mxGeometry relative="1" as="geometry" />
        </mxCell>
        <mxCell id="60571a20871a0731-4" value="" style="ellipse;whiteSpace=wrap;html=1;rounded=0;shadow=0;comic=0;labelBackgroundColor=none;strokeWidth=1;fillColor=#000000;fontFamily=Verdana;fontSize=12;align=center;" parent="1c1d494c118603dd-4" vertex="1">
          <mxGeometry x="158.5" y="40" width="40" height="40" as="geometry" />
        </mxCell>
        <mxCell id="jAqfNEqAzGO9UF7VZpTB-252" value="download&lt;br&gt;installer" style="rounded=1;whiteSpace=wrap;html=1;shadow=0;comic=0;labelBackgroundColor=none;strokeWidth=1;fontFamily=Verdana;fontSize=12;align=center;arcSize=50;" vertex="1" parent="1c1d494c118603dd-4">
          <mxGeometry x="140" y="252" width="123" height="38" as="geometry" />
        </mxCell>
        <mxCell id="jAqfNEqAzGO9UF7VZpTB-285" style="edgeStyle=orthogonalEdgeStyle;shape=connector;rounded=0;orthogonalLoop=1;jettySize=auto;html=1;entryX=0.5;entryY=0;entryDx=0;entryDy=0;labelBackgroundColor=none;strokeColor=default;strokeWidth=1;align=center;verticalAlign=middle;fontFamily=Verdana;fontSize=12;fontColor=default;startArrow=none;startFill=0;endArrow=classicThin;endFill=1;startSize=5;endSize=5;" edge="1" parent="1c1d494c118603dd-4" source="jAqfNEqAzGO9UF7VZpTB-263" target="jAqfNEqAzGO9UF7VZpTB-284">
          <mxGeometry relative="1" as="geometry" />
        </mxCell>
        <mxCell id="jAqfNEqAzGO9UF7VZpTB-263" value="" style="whiteSpace=wrap;html=1;rounded=0;shadow=0;comic=0;labelBackgroundColor=none;strokeWidth=1;fillColor=#000000;fontFamily=Verdana;fontSize=12;align=center;rotation=0;" vertex="1" parent="1c1d494c118603dd-4">
          <mxGeometry x="100" y="340" width="147" height="10" as="geometry" />
        </mxCell>
        <mxCell id="jAqfNEqAzGO9UF7VZpTB-265" style="edgeStyle=orthogonalEdgeStyle;shape=connector;rounded=0;orthogonalLoop=1;jettySize=auto;html=1;entryX=0.689;entryY=0.246;entryDx=0;entryDy=0;entryPerimeter=0;labelBackgroundColor=none;strokeColor=default;strokeWidth=1;align=center;verticalAlign=middle;fontFamily=Verdana;fontSize=12;fontColor=default;startArrow=none;startFill=0;endArrow=classicThin;endFill=1;startSize=5;endSize=5;" edge="1" parent="1c1d494c118603dd-4" source="jAqfNEqAzGO9UF7VZpTB-252" target="jAqfNEqAzGO9UF7VZpTB-263">
          <mxGeometry relative="1" as="geometry" />
        </mxCell>
        <mxCell id="jAqfNEqAzGO9UF7VZpTB-311" style="edgeStyle=orthogonalEdgeStyle;shape=connector;rounded=0;orthogonalLoop=1;jettySize=auto;html=1;labelBackgroundColor=none;strokeColor=default;strokeWidth=1;align=center;verticalAlign=middle;fontFamily=Verdana;fontSize=12;fontColor=default;startArrow=none;startFill=0;endArrow=classicThin;endFill=1;startSize=5;endSize=5;" edge="1" parent="1c1d494c118603dd-4" source="jAqfNEqAzGO9UF7VZpTB-284" target="jAqfNEqAzGO9UF7VZpTB-308">
          <mxGeometry relative="1" as="geometry" />
        </mxCell>
        <mxCell id="jAqfNEqAzGO9UF7VZpTB-284" value="install software" style="rounded=1;whiteSpace=wrap;html=1;shadow=0;comic=0;labelBackgroundColor=none;strokeWidth=1;fontFamily=Verdana;fontSize=12;align=center;arcSize=50;" vertex="1" parent="1c1d494c118603dd-4">
          <mxGeometry x="113.5" y="390" width="120" height="30" as="geometry" />
        </mxCell>
        <mxCell id="jAqfNEqAzGO9UF7VZpTB-303" value="send registration code" style="rounded=1;whiteSpace=wrap;html=1;shadow=0;comic=0;labelBackgroundColor=none;strokeWidth=1;fontFamily=Verdana;fontSize=12;align=center;arcSize=50;" vertex="1" parent="1c1d494c118603dd-4">
          <mxGeometry x="113.5" y="560" width="120" height="40" as="geometry" />
        </mxCell>
        <mxCell id="jAqfNEqAzGO9UF7VZpTB-309" style="edgeStyle=orthogonalEdgeStyle;shape=connector;rounded=0;orthogonalLoop=1;jettySize=auto;html=1;labelBackgroundColor=none;strokeColor=default;strokeWidth=1;align=center;verticalAlign=middle;fontFamily=Verdana;fontSize=12;fontColor=default;startArrow=none;startFill=0;endArrow=classicThin;endFill=1;startSize=5;endSize=5;" edge="1" parent="1c1d494c118603dd-4" source="jAqfNEqAzGO9UF7VZpTB-308" target="jAqfNEqAzGO9UF7VZpTB-303">
          <mxGeometry relative="1" as="geometry" />
        </mxCell>
        <mxCell id="jAqfNEqAzGO9UF7VZpTB-308" value="enter client data &lt;br&gt;(nip, email, comapny name)" style="rounded=1;whiteSpace=wrap;html=1;shadow=0;comic=0;labelBackgroundColor=none;strokeWidth=1;fontFamily=Verdana;fontSize=12;align=center;arcSize=50;" vertex="1" parent="1c1d494c118603dd-4">
          <mxGeometry x="75.25" y="460" width="196.5" height="70" as="geometry" />
        </mxCell>
        <mxCell id="jAqfNEqAzGO9UF7VZpTB-318" style="edgeStyle=orthogonalEdgeStyle;shape=connector;rounded=0;orthogonalLoop=1;jettySize=auto;html=1;labelBackgroundColor=none;strokeColor=default;strokeWidth=1;align=center;verticalAlign=middle;fontFamily=Verdana;fontSize=12;fontColor=default;startArrow=none;startFill=0;endArrow=classicThin;endFill=1;startSize=5;endSize=5;" edge="1" parent="1c1d494c118603dd-4" source="jAqfNEqAzGO9UF7VZpTB-316" target="60571a20871a0731-5">
          <mxGeometry relative="1" as="geometry" />
        </mxCell>
        <mxCell id="jAqfNEqAzGO9UF7VZpTB-316" value="activate software" style="rounded=1;whiteSpace=wrap;html=1;shadow=0;comic=0;labelBackgroundColor=none;strokeWidth=1;fontFamily=Verdana;fontSize=12;align=center;arcSize=50;" vertex="1" parent="1c1d494c118603dd-4">
          <mxGeometry x="128.5" y="830" width="120" height="40" as="geometry" />
        </mxCell>
        <mxCell id="jAqfNEqAzGO9UF7VZpTB-361" style="edgeStyle=orthogonalEdgeStyle;shape=connector;rounded=0;orthogonalLoop=1;jettySize=auto;html=1;exitX=0.5;exitY=1;exitDx=0;exitDy=0;labelBackgroundColor=none;strokeColor=default;strokeWidth=1;align=center;verticalAlign=middle;fontFamily=Verdana;fontSize=12;fontColor=default;startArrow=none;startFill=0;endArrow=classicThin;endFill=1;startSize=5;endSize=5;" edge="1" parent="1c1d494c118603dd-4" source="jAqfNEqAzGO9UF7VZpTB-303" target="jAqfNEqAzGO9UF7VZpTB-303">
          <mxGeometry relative="1" as="geometry" />
        </mxCell>
        <mxCell id="jAqfNEqAzGO9UF7VZpTB-317" style="edgeStyle=orthogonalEdgeStyle;shape=connector;rounded=0;orthogonalLoop=1;jettySize=auto;html=1;labelBackgroundColor=none;strokeColor=default;strokeWidth=1;align=center;verticalAlign=middle;fontFamily=Verdana;fontSize=12;fontColor=default;startArrow=none;startFill=0;endArrow=classicThin;endFill=1;startSize=5;endSize=5;" edge="1" parent="1c1d494c118603dd-1" source="jAqfNEqAzGO9UF7VZpTB-312" target="jAqfNEqAzGO9UF7VZpTB-316">
          <mxGeometry relative="1" as="geometry">
            <Array as="points">
              <mxPoint x="547" y="820" />
            </Array>
          </mxGeometry>
        </mxCell>
        <mxCell id="jAqfNEqAzGO9UF7VZpTB-362" style="edgeStyle=orthogonalEdgeStyle;shape=connector;rounded=0;orthogonalLoop=1;jettySize=auto;html=1;entryX=0.583;entryY=-0.149;entryDx=0;entryDy=0;entryPerimeter=0;labelBackgroundColor=none;strokeColor=default;strokeWidth=1;align=center;verticalAlign=middle;fontFamily=Verdana;fontSize=12;fontColor=default;startArrow=none;startFill=0;endArrow=classicThin;endFill=1;startSize=5;endSize=5;" edge="1" parent="1c1d494c118603dd-1" source="jAqfNEqAzGO9UF7VZpTB-303" target="jAqfNEqAzGO9UF7VZpTB-319">
          <mxGeometry relative="1" as="geometry">
            <mxPoint x="467.36" y="590" as="sourcePoint" />
            <mxPoint x="179.9999999999999" y="606.9499999999998" as="targetPoint" />
          </mxGeometry>
        </mxCell>
        <mxCell id="jAqfNEqAzGO9UF7VZpTB-363" value="REGISTRATION, ACTIVATION PROCESS and&amp;nbsp;" style="swimlane;html=1;childLayout=stackLayout;startSize=20;rounded=0;shadow=0;comic=0;labelBackgroundColor=none;strokeWidth=1;fontFamily=Verdana;fontSize=12;align=center;" vertex="1" parent="1">
          <mxGeometry x="850" y="20" width="720" height="990" as="geometry" />
        </mxCell>
        <mxCell id="jAqfNEqAzGO9UF7VZpTB-364" style="edgeStyle=orthogonalEdgeStyle;shape=connector;rounded=0;orthogonalLoop=1;jettySize=auto;html=1;labelBackgroundColor=none;strokeColor=default;strokeWidth=1;align=center;verticalAlign=middle;fontFamily=Verdana;fontSize=12;fontColor=default;startArrow=none;startFill=0;endArrow=classicThin;endFill=1;startSize=5;endSize=5;" edge="1" parent="jAqfNEqAzGO9UF7VZpTB-363" source="jAqfNEqAzGO9UF7VZpTB-375" target="jAqfNEqAzGO9UF7VZpTB-387">
          <mxGeometry relative="1" as="geometry">
            <Array as="points">
              <mxPoint x="490" y="312" />
            </Array>
          </mxGeometry>
        </mxCell>
        <mxCell id="jAqfNEqAzGO9UF7VZpTB-365" style="edgeStyle=orthogonalEdgeStyle;shape=connector;rounded=0;orthogonalLoop=1;jettySize=auto;html=1;labelBackgroundColor=none;strokeColor=default;strokeWidth=1;align=center;verticalAlign=middle;fontFamily=Verdana;fontSize=12;fontColor=default;startArrow=none;startFill=0;endArrow=classicThin;endFill=1;startSize=5;endSize=5;" edge="1" parent="jAqfNEqAzGO9UF7VZpTB-363" source="jAqfNEqAzGO9UF7VZpTB-373" target="jAqfNEqAzGO9UF7VZpTB-385">
          <mxGeometry relative="1" as="geometry">
            <mxPoint x="835" y="292" as="targetPoint" />
          </mxGeometry>
        </mxCell>
        <mxCell id="jAqfNEqAzGO9UF7VZpTB-366" style="edgeStyle=orthogonalEdgeStyle;shape=connector;rounded=0;orthogonalLoop=1;jettySize=auto;html=1;entryX=0.5;entryY=0;entryDx=0;entryDy=0;labelBackgroundColor=none;strokeColor=default;strokeWidth=1;align=center;verticalAlign=middle;fontFamily=Verdana;fontSize=12;fontColor=default;startArrow=none;startFill=0;endArrow=classicThin;endFill=1;startSize=5;endSize=5;" edge="1" parent="jAqfNEqAzGO9UF7VZpTB-363" source="jAqfNEqAzGO9UF7VZpTB-382" target="jAqfNEqAzGO9UF7VZpTB-371">
          <mxGeometry relative="1" as="geometry">
            <mxPoint x="835" y="160" as="sourcePoint" />
          </mxGeometry>
        </mxCell>
        <mxCell id="jAqfNEqAzGO9UF7VZpTB-367" value="customer service" style="swimlane;html=1;startSize=20;" vertex="1" parent="jAqfNEqAzGO9UF7VZpTB-363">
          <mxGeometry y="20" width="360" height="970" as="geometry" />
        </mxCell>
        <mxCell id="jAqfNEqAzGO9UF7VZpTB-399" style="edgeStyle=orthogonalEdgeStyle;shape=connector;rounded=0;orthogonalLoop=1;jettySize=auto;html=1;entryX=0.5;entryY=0;entryDx=0;entryDy=0;labelBackgroundColor=none;strokeColor=default;strokeWidth=1;align=center;verticalAlign=middle;fontFamily=Verdana;fontSize=12;fontColor=default;startArrow=none;startFill=0;endArrow=classicThin;endFill=1;startSize=5;endSize=5;" edge="1" parent="jAqfNEqAzGO9UF7VZpTB-367" source="jAqfNEqAzGO9UF7VZpTB-368" target="jAqfNEqAzGO9UF7VZpTB-339">
          <mxGeometry relative="1" as="geometry" />
        </mxCell>
        <mxCell id="jAqfNEqAzGO9UF7VZpTB-368" value="store registration code" style="rounded=1;whiteSpace=wrap;html=1;shadow=0;comic=0;labelBackgroundColor=none;strokeWidth=1;fontFamily=Verdana;fontSize=12;align=center;arcSize=50;" vertex="1" parent="jAqfNEqAzGO9UF7VZpTB-367">
          <mxGeometry x="17.5" y="671" width="165" height="40" as="geometry" />
        </mxCell>
        <mxCell id="jAqfNEqAzGO9UF7VZpTB-369" value="generate activation code" style="rounded=1;whiteSpace=wrap;html=1;shadow=0;comic=0;labelBackgroundColor=none;strokeWidth=1;fontFamily=Verdana;fontSize=12;align=center;arcSize=50;" vertex="1" parent="jAqfNEqAzGO9UF7VZpTB-367">
          <mxGeometry x="200" y="720" width="135" height="40" as="geometry" />
        </mxCell>
        <mxCell id="jAqfNEqAzGO9UF7VZpTB-370" value="use activation code generator" style="shape=note;whiteSpace=wrap;html=1;rounded=0;shadow=0;comic=0;labelBackgroundColor=none;strokeWidth=1;fontFamily=Verdana;fontSize=12;align=center;size=20;" vertex="1" parent="jAqfNEqAzGO9UF7VZpTB-367">
          <mxGeometry x="140" y="820" width="110" height="62" as="geometry" />
        </mxCell>
        <mxCell id="jAqfNEqAzGO9UF7VZpTB-371" value="" style="whiteSpace=wrap;html=1;rounded=0;shadow=0;comic=0;labelBackgroundColor=none;strokeWidth=1;fillColor=#000000;fontFamily=Verdana;fontSize=12;align=center;rotation=0;" vertex="1" parent="jAqfNEqAzGO9UF7VZpTB-367">
          <mxGeometry x="95" y="164" width="147" height="10" as="geometry" />
        </mxCell>
        <mxCell id="jAqfNEqAzGO9UF7VZpTB-372" style="edgeStyle=orthogonalEdgeStyle;shape=connector;rounded=0;orthogonalLoop=1;jettySize=auto;html=1;labelBackgroundColor=none;strokeColor=default;strokeWidth=1;align=center;verticalAlign=middle;fontFamily=Verdana;fontSize=12;fontColor=default;startArrow=none;startFill=0;endArrow=classicThin;endFill=1;startSize=5;endSize=5;" edge="1" parent="jAqfNEqAzGO9UF7VZpTB-367" source="jAqfNEqAzGO9UF7VZpTB-371" target="jAqfNEqAzGO9UF7VZpTB-375">
          <mxGeometry relative="1" as="geometry" />
        </mxCell>
        <mxCell id="jAqfNEqAzGO9UF7VZpTB-373" value="grant access to installer" style="rounded=1;whiteSpace=wrap;html=1;shadow=0;comic=0;labelBackgroundColor=none;strokeWidth=1;fontFamily=Verdana;fontSize=12;align=center;arcSize=50;" vertex="1" parent="jAqfNEqAzGO9UF7VZpTB-367">
          <mxGeometry x="190" y="212" width="125" height="40" as="geometry" />
        </mxCell>
        <mxCell id="jAqfNEqAzGO9UF7VZpTB-374" style="edgeStyle=orthogonalEdgeStyle;shape=connector;rounded=0;orthogonalLoop=1;jettySize=auto;html=1;labelBackgroundColor=none;strokeColor=default;strokeWidth=1;align=center;verticalAlign=middle;fontFamily=Verdana;fontSize=12;fontColor=default;startArrow=none;startFill=0;endArrow=classicThin;endFill=1;startSize=5;endSize=5;" edge="1" parent="jAqfNEqAzGO9UF7VZpTB-367" source="jAqfNEqAzGO9UF7VZpTB-371" target="jAqfNEqAzGO9UF7VZpTB-373">
          <mxGeometry relative="1" as="geometry" />
        </mxCell>
        <mxCell id="jAqfNEqAzGO9UF7VZpTB-375" value="send installer verification code" style="rounded=1;whiteSpace=wrap;html=1;shadow=0;comic=0;labelBackgroundColor=none;strokeWidth=1;fontFamily=Verdana;fontSize=12;align=center;arcSize=50;" vertex="1" parent="jAqfNEqAzGO9UF7VZpTB-367">
          <mxGeometry x="30" y="270" width="140" height="40" as="geometry" />
        </mxCell>
        <mxCell id="jAqfNEqAzGO9UF7VZpTB-376" style="edgeStyle=none;rounded=0;html=1;dashed=1;labelBackgroundColor=none;startArrow=none;startFill=0;startSize=5;endArrow=oval;endFill=0;endSize=5;jettySize=auto;orthogonalLoop=1;strokeWidth=1;fontFamily=Verdana;fontSize=12" edge="1" parent="jAqfNEqAzGO9UF7VZpTB-367" source="jAqfNEqAzGO9UF7VZpTB-370" target="jAqfNEqAzGO9UF7VZpTB-369">
          <mxGeometry relative="1" as="geometry">
            <mxPoint x="1475" y="679" as="sourcePoint" />
            <mxPoint x="1795" y="639" as="targetPoint" />
          </mxGeometry>
        </mxCell>
        <mxCell id="jAqfNEqAzGO9UF7VZpTB-377" style="edgeStyle=orthogonalEdgeStyle;shape=connector;rounded=0;orthogonalLoop=1;jettySize=auto;html=1;labelBackgroundColor=none;strokeColor=default;strokeWidth=1;align=center;verticalAlign=middle;fontFamily=Verdana;fontSize=12;fontColor=default;startArrow=none;startFill=0;endArrow=classicThin;endFill=1;startSize=5;endSize=5;" edge="1" parent="jAqfNEqAzGO9UF7VZpTB-367" source="jAqfNEqAzGO9UF7VZpTB-379" target="jAqfNEqAzGO9UF7VZpTB-368">
          <mxGeometry relative="1" as="geometry" />
        </mxCell>
        <mxCell id="jAqfNEqAzGO9UF7VZpTB-378" style="edgeStyle=orthogonalEdgeStyle;shape=connector;rounded=0;orthogonalLoop=1;jettySize=auto;html=1;labelBackgroundColor=none;strokeColor=default;strokeWidth=1;align=center;verticalAlign=middle;fontFamily=Verdana;fontSize=12;fontColor=default;startArrow=none;startFill=0;endArrow=classicThin;endFill=1;startSize=5;endSize=5;" edge="1" parent="jAqfNEqAzGO9UF7VZpTB-367" source="jAqfNEqAzGO9UF7VZpTB-379" target="jAqfNEqAzGO9UF7VZpTB-369">
          <mxGeometry relative="1" as="geometry">
            <Array as="points">
              <mxPoint x="210" y="660" />
              <mxPoint x="260" y="660" />
            </Array>
          </mxGeometry>
        </mxCell>
        <mxCell id="jAqfNEqAzGO9UF7VZpTB-379" value="" style="whiteSpace=wrap;html=1;rounded=0;shadow=0;comic=0;labelBackgroundColor=none;strokeWidth=1;fillColor=#000000;fontFamily=Verdana;fontSize=12;align=center;rotation=0;" vertex="1" parent="jAqfNEqAzGO9UF7VZpTB-367">
          <mxGeometry x="95" y="620" width="147" height="10" as="geometry" />
        </mxCell>
        <mxCell id="jAqfNEqAzGO9UF7VZpTB-339" value="Object" style="rounded=0;whiteSpace=wrap;html=1;shadow=0;comic=0;labelBackgroundColor=none;strokeWidth=1;fontFamily=Verdana;fontSize=12;align=center;arcSize=50;" vertex="1" parent="jAqfNEqAzGO9UF7VZpTB-367">
          <mxGeometry x="65" y="770" width="70" height="30" as="geometry" />
        </mxCell>
        <mxCell id="jAqfNEqAzGO9UF7VZpTB-380" value="client" style="swimlane;html=1;startSize=20;" vertex="1" parent="jAqfNEqAzGO9UF7VZpTB-363">
          <mxGeometry x="360" y="20" width="360" height="970" as="geometry" />
        </mxCell>
        <mxCell id="jAqfNEqAzGO9UF7VZpTB-381" value="" style="shape=mxgraph.bpmn.shape;html=1;verticalLabelPosition=bottom;labelBackgroundColor=#ffffff;verticalAlign=top;perimeter=ellipsePerimeter;outline=end;symbol=terminate;rounded=0;shadow=0;comic=0;strokeWidth=1;fontFamily=Verdana;fontSize=12;align=center;" vertex="1" parent="jAqfNEqAzGO9UF7VZpTB-380">
          <mxGeometry x="168.5" y="900" width="40" height="40" as="geometry" />
        </mxCell>
        <mxCell id="jAqfNEqAzGO9UF7VZpTB-382" value="make order" style="rounded=1;whiteSpace=wrap;html=1;shadow=0;comic=0;labelBackgroundColor=none;strokeWidth=1;fontFamily=Verdana;fontSize=12;align=center;arcSize=50;" vertex="1" parent="jAqfNEqAzGO9UF7VZpTB-380">
          <mxGeometry x="128.5" y="120" width="100" height="30" as="geometry" />
        </mxCell>
        <mxCell id="jAqfNEqAzGO9UF7VZpTB-383" style="edgeStyle=none;shape=connector;rounded=0;orthogonalLoop=1;jettySize=auto;html=1;labelBackgroundColor=none;strokeColor=default;strokeWidth=1;align=center;verticalAlign=middle;fontFamily=Verdana;fontSize=12;fontColor=default;startArrow=none;startFill=0;endArrow=classicThin;endFill=1;startSize=5;endSize=5;" edge="1" parent="jAqfNEqAzGO9UF7VZpTB-380" source="jAqfNEqAzGO9UF7VZpTB-384" target="jAqfNEqAzGO9UF7VZpTB-382">
          <mxGeometry relative="1" as="geometry" />
        </mxCell>
        <mxCell id="jAqfNEqAzGO9UF7VZpTB-384" value="" style="ellipse;whiteSpace=wrap;html=1;rounded=0;shadow=0;comic=0;labelBackgroundColor=none;strokeWidth=1;fillColor=#000000;fontFamily=Verdana;fontSize=12;align=center;" vertex="1" parent="jAqfNEqAzGO9UF7VZpTB-380">
          <mxGeometry x="158.5" y="40" width="40" height="40" as="geometry" />
        </mxCell>
        <mxCell id="jAqfNEqAzGO9UF7VZpTB-385" value="download&lt;br&gt;installer" style="rounded=1;whiteSpace=wrap;html=1;shadow=0;comic=0;labelBackgroundColor=none;strokeWidth=1;fontFamily=Verdana;fontSize=12;align=center;arcSize=50;" vertex="1" parent="jAqfNEqAzGO9UF7VZpTB-380">
          <mxGeometry x="140" y="252" width="123" height="38" as="geometry" />
        </mxCell>
        <mxCell id="jAqfNEqAzGO9UF7VZpTB-386" style="edgeStyle=orthogonalEdgeStyle;shape=connector;rounded=0;orthogonalLoop=1;jettySize=auto;html=1;entryX=0.5;entryY=0;entryDx=0;entryDy=0;labelBackgroundColor=none;strokeColor=default;strokeWidth=1;align=center;verticalAlign=middle;fontFamily=Verdana;fontSize=12;fontColor=default;startArrow=none;startFill=0;endArrow=classicThin;endFill=1;startSize=5;endSize=5;" edge="1" parent="jAqfNEqAzGO9UF7VZpTB-380" source="jAqfNEqAzGO9UF7VZpTB-387" target="jAqfNEqAzGO9UF7VZpTB-390">
          <mxGeometry relative="1" as="geometry" />
        </mxCell>
        <mxCell id="jAqfNEqAzGO9UF7VZpTB-387" value="" style="whiteSpace=wrap;html=1;rounded=0;shadow=0;comic=0;labelBackgroundColor=none;strokeWidth=1;fillColor=#000000;fontFamily=Verdana;fontSize=12;align=center;rotation=0;" vertex="1" parent="jAqfNEqAzGO9UF7VZpTB-380">
          <mxGeometry x="100" y="340" width="147" height="10" as="geometry" />
        </mxCell>
        <mxCell id="jAqfNEqAzGO9UF7VZpTB-388" style="edgeStyle=orthogonalEdgeStyle;shape=connector;rounded=0;orthogonalLoop=1;jettySize=auto;html=1;entryX=0.689;entryY=0.246;entryDx=0;entryDy=0;entryPerimeter=0;labelBackgroundColor=none;strokeColor=default;strokeWidth=1;align=center;verticalAlign=middle;fontFamily=Verdana;fontSize=12;fontColor=default;startArrow=none;startFill=0;endArrow=classicThin;endFill=1;startSize=5;endSize=5;" edge="1" parent="jAqfNEqAzGO9UF7VZpTB-380" source="jAqfNEqAzGO9UF7VZpTB-385" target="jAqfNEqAzGO9UF7VZpTB-387">
          <mxGeometry relative="1" as="geometry" />
        </mxCell>
        <mxCell id="jAqfNEqAzGO9UF7VZpTB-389" style="edgeStyle=orthogonalEdgeStyle;shape=connector;rounded=0;orthogonalLoop=1;jettySize=auto;html=1;labelBackgroundColor=none;strokeColor=default;strokeWidth=1;align=center;verticalAlign=middle;fontFamily=Verdana;fontSize=12;fontColor=default;startArrow=none;startFill=0;endArrow=classicThin;endFill=1;startSize=5;endSize=5;" edge="1" parent="jAqfNEqAzGO9UF7VZpTB-380" source="jAqfNEqAzGO9UF7VZpTB-390" target="jAqfNEqAzGO9UF7VZpTB-393">
          <mxGeometry relative="1" as="geometry" />
        </mxCell>
        <mxCell id="jAqfNEqAzGO9UF7VZpTB-390" value="install software" style="rounded=1;whiteSpace=wrap;html=1;shadow=0;comic=0;labelBackgroundColor=none;strokeWidth=1;fontFamily=Verdana;fontSize=12;align=center;arcSize=50;" vertex="1" parent="jAqfNEqAzGO9UF7VZpTB-380">
          <mxGeometry x="113.5" y="390" width="120" height="30" as="geometry" />
        </mxCell>
        <mxCell id="jAqfNEqAzGO9UF7VZpTB-391" value="send registration code" style="rounded=1;whiteSpace=wrap;html=1;shadow=0;comic=0;labelBackgroundColor=none;strokeWidth=1;fontFamily=Verdana;fontSize=12;align=center;arcSize=50;" vertex="1" parent="jAqfNEqAzGO9UF7VZpTB-380">
          <mxGeometry x="113.5" y="560" width="120" height="40" as="geometry" />
        </mxCell>
        <mxCell id="jAqfNEqAzGO9UF7VZpTB-392" style="edgeStyle=orthogonalEdgeStyle;shape=connector;rounded=0;orthogonalLoop=1;jettySize=auto;html=1;labelBackgroundColor=none;strokeColor=default;strokeWidth=1;align=center;verticalAlign=middle;fontFamily=Verdana;fontSize=12;fontColor=default;startArrow=none;startFill=0;endArrow=classicThin;endFill=1;startSize=5;endSize=5;" edge="1" parent="jAqfNEqAzGO9UF7VZpTB-380" source="jAqfNEqAzGO9UF7VZpTB-393" target="jAqfNEqAzGO9UF7VZpTB-391">
          <mxGeometry relative="1" as="geometry" />
        </mxCell>
        <mxCell id="jAqfNEqAzGO9UF7VZpTB-393" value="enter client data &lt;br&gt;(nip, email, comapny name)" style="rounded=1;whiteSpace=wrap;html=1;shadow=0;comic=0;labelBackgroundColor=none;strokeWidth=1;fontFamily=Verdana;fontSize=12;align=center;arcSize=50;" vertex="1" parent="jAqfNEqAzGO9UF7VZpTB-380">
          <mxGeometry x="75.25" y="460" width="196.5" height="70" as="geometry" />
        </mxCell>
        <mxCell id="jAqfNEqAzGO9UF7VZpTB-394" style="edgeStyle=orthogonalEdgeStyle;shape=connector;rounded=0;orthogonalLoop=1;jettySize=auto;html=1;labelBackgroundColor=none;strokeColor=default;strokeWidth=1;align=center;verticalAlign=middle;fontFamily=Verdana;fontSize=12;fontColor=default;startArrow=none;startFill=0;endArrow=classicThin;endFill=1;startSize=5;endSize=5;" edge="1" parent="jAqfNEqAzGO9UF7VZpTB-380" source="jAqfNEqAzGO9UF7VZpTB-395" target="jAqfNEqAzGO9UF7VZpTB-381">
          <mxGeometry relative="1" as="geometry" />
        </mxCell>
        <mxCell id="jAqfNEqAzGO9UF7VZpTB-395" value="activate software" style="rounded=1;whiteSpace=wrap;html=1;shadow=0;comic=0;labelBackgroundColor=none;strokeWidth=1;fontFamily=Verdana;fontSize=12;align=center;arcSize=50;" vertex="1" parent="jAqfNEqAzGO9UF7VZpTB-380">
          <mxGeometry x="128.5" y="830" width="120" height="40" as="geometry" />
        </mxCell>
        <mxCell id="jAqfNEqAzGO9UF7VZpTB-396" style="edgeStyle=orthogonalEdgeStyle;shape=connector;rounded=0;orthogonalLoop=1;jettySize=auto;html=1;exitX=0.5;exitY=1;exitDx=0;exitDy=0;labelBackgroundColor=none;strokeColor=default;strokeWidth=1;align=center;verticalAlign=middle;fontFamily=Verdana;fontSize=12;fontColor=default;startArrow=none;startFill=0;endArrow=classicThin;endFill=1;startSize=5;endSize=5;" edge="1" parent="jAqfNEqAzGO9UF7VZpTB-380" source="jAqfNEqAzGO9UF7VZpTB-391" target="jAqfNEqAzGO9UF7VZpTB-391">
          <mxGeometry relative="1" as="geometry" />
        </mxCell>
        <mxCell id="jAqfNEqAzGO9UF7VZpTB-397" style="edgeStyle=orthogonalEdgeStyle;shape=connector;rounded=0;orthogonalLoop=1;jettySize=auto;html=1;labelBackgroundColor=none;strokeColor=default;strokeWidth=1;align=center;verticalAlign=middle;fontFamily=Verdana;fontSize=12;fontColor=default;startArrow=none;startFill=0;endArrow=classicThin;endFill=1;startSize=5;endSize=5;" edge="1" parent="jAqfNEqAzGO9UF7VZpTB-363" source="jAqfNEqAzGO9UF7VZpTB-369" target="jAqfNEqAzGO9UF7VZpTB-395">
          <mxGeometry relative="1" as="geometry">
            <Array as="points">
              <mxPoint x="547" y="820" />
            </Array>
          </mxGeometry>
        </mxCell>
        <mxCell id="jAqfNEqAzGO9UF7VZpTB-398" style="edgeStyle=orthogonalEdgeStyle;shape=connector;rounded=0;orthogonalLoop=1;jettySize=auto;html=1;entryX=0.583;entryY=-0.149;entryDx=0;entryDy=0;entryPerimeter=0;labelBackgroundColor=none;strokeColor=default;strokeWidth=1;align=center;verticalAlign=middle;fontFamily=Verdana;fontSize=12;fontColor=default;startArrow=none;startFill=0;endArrow=classicThin;endFill=1;startSize=5;endSize=5;" edge="1" parent="jAqfNEqAzGO9UF7VZpTB-363" source="jAqfNEqAzGO9UF7VZpTB-391" target="jAqfNEqAzGO9UF7VZpTB-379">
          <mxGeometry relative="1" as="geometry">
            <mxPoint x="467.36" y="590" as="sourcePoint" />
            <mxPoint x="179.9999999999999" y="606.9499999999998" as="targetPoint" />
          </mxGeometry>
        </mxCell>
      </root>
    </mxGraphModel>
  </diagram>
</mxfile>
